<svg width="32" height="32" viewBox="0 0 32 32" fill="none" xmlns="http://www.w3.org/2000/svg">
<g opacity="0.6">
<path d="M31.5513 2.84106L29.3409 0.656839C28.7427 0.0587079 27.7545 0.0587079 27.1304 0.656839L16.104 11.683L4.86976 0.448793C4.27137 -0.149598 3.28315 -0.149598 2.65928 0.448793L0.448793 2.65928C-0.149598 3.25741 -0.149598 4.24562 0.448793 4.86976L11.6572 16.0782L0.656839 27.1306C0.0587079 27.7288 0.0587079 28.717 0.656839 29.3411L2.86732 31.5516C3.46545 32.1497 4.45367 32.1497 5.07781 31.5516L16.104 20.5252L27.1304 31.5516C27.7285 32.1497 28.7167 32.1497 29.3409 31.5516L31.5513 29.3411C32.1495 28.743 32.1495 27.7548 31.5513 27.1306L20.4989 16.1042L31.5253 5.07807C32.1495 4.45341 32.1495 3.46519 31.5513 2.84106Z" fill="white"/>
</g>
</svg>
