<svg width="55" height="76" viewBox="0 0 55 76" fill="none" xmlns="http://www.w3.org/2000/svg">
<path d="M33.376 35.6261L34.7336 37.389C36.0242 39.0647 36.7222 41.1063 36.7222 43.2053V69.9673C36.7222 72.8034 34.3743 75.1024 31.478 75.1024H14.2441C11.3478 75.1024 9 72.8034 9 69.9673V49.7287C9 47.5654 9.87756 45.4908 11.4398 43.961L13.4601 41.9827L20.5785 28H28.4148L33.376 35.6261Z" fill="#008A16"/>
<path d="M15.5999 69.9673V49.7287C15.5999 47.5654 16.4775 45.4908 18.0397 43.961L20.0601 41.9827L27.1784 28H20.5785L13.4603 41.9827L11.4398 43.961C9.87756 45.4908 9 47.5654 9 49.7287V69.9672C9 72.8033 11.348 75.1024 14.2441 75.1024H20.8441C17.9478 75.1024 15.5999 72.8034 15.5999 69.9673Z" fill="#46A52E"/>
<path d="M36.1799 68.2151C35.5646 68.2151 35.0661 68.7136 35.0661 69.3289V69.6418C35.0661 71.9193 33.2131 73.7723 30.9356 73.7723H13.7019C11.4244 73.7723 9.57144 71.9193 9.57144 69.6418V52.4855C9.57144 51.8702 9.07289 51.3716 8.4576 51.3716C7.84231 51.3716 7.34375 51.8702 7.34375 52.4855V69.6418C7.34375 73.1476 10.1959 76 13.7019 76H30.9358C34.4416 76 37.2939 73.1478 37.2939 69.6418V69.3289C37.2938 68.7138 36.7952 68.2151 36.1799 68.2151Z" fill="black"/>
<path d="M53.1298 40.1595H46.9128C46.6175 40.1595 46.3342 40.2769 46.1253 40.4857L43.7507 42.8601C43.245 43.3659 42.5723 43.6445 41.8569 43.6445H37.2929V42.3116C37.2929 40.1343 36.6279 37.977 35.4136 36.173C35.6664 36.1926 35.9211 36.2058 36.1789 36.2058C36.7942 36.2058 37.2928 35.7073 37.2928 35.092C37.2928 34.4767 36.7942 33.9781 36.1789 33.9781C32.0072 33.9781 28.6134 30.5842 28.6134 26.4126V23.5804C28.6134 23.1618 28.3786 22.7785 28.0055 22.5881L22.4792 19.7703C22.0649 19.5592 21.5635 19.6273 21.2207 19.9413L18.8258 22.135C18.4163 22.51 17.8661 22.6877 17.3142 22.6218C16.7629 22.5561 16.269 22.2541 15.9592 21.7934C15.4406 21.0225 15.5518 19.9965 16.2234 19.3542L19.7241 16.0073C20.477 15.2875 21.4655 14.8911 22.507 14.8911H31.1657C32.1899 14.8911 33.1727 15.3253 33.8624 16.0823L39.7039 22.4948C39.9149 22.7265 40.2139 22.8585 40.5272 22.8585H53.1296C53.7449 22.8585 54.2435 22.36 54.2435 21.7447C54.2435 21.1294 53.7449 20.6308 53.1296 20.6308H41.0193L35.5093 14.5825C34.3986 13.363 32.8153 12.6637 31.1659 12.6637H30.8732V10.9374L37.7064 8.77682C38.39 8.56073 38.9139 8.0197 39.1082 7.32956C39.3025 6.63957 39.1375 5.90443 38.667 5.36369L36.8649 3.29105C35.0462 1.19954 32.4137 0 29.6421 0H29.3677C28.7524 0 28.2538 0.498558 28.2538 1.11385C28.2538 1.72914 28.7524 2.22769 29.3677 2.22769H29.6421C31.7685 2.22769 33.7886 3.14803 35.1839 4.75271L36.8787 6.70194L29.4235 9.05914C28.9603 9.20557 28.6455 9.63537 28.6455 10.1212V12.6637H22.5071C21.378 12.6637 20.2897 12.9644 19.3373 13.5258L15.9423 7.00476C15.7505 6.6363 15.3698 6.40521 14.9544 6.40521H8.57959C8.46093 6.40521 8.3644 6.30868 8.3644 6.19002V2.44304C8.3644 2.32438 8.46093 2.22784 8.57959 2.22784H24.6208C25.2361 2.22784 25.7346 1.72928 25.7346 1.114C25.7346 0.498706 25.2361 0.000148513 24.6208 0.000148513H8.57974C7.88797 0.000148513 7.26377 0.290491 6.81882 0.754149H4.1141C2.51804 0.754149 1.21944 2.0526 1.21944 3.64867V5.00444C1.21944 6.60051 2.51804 7.89911 4.1141 7.89911H6.83709C6.93882 8.00277 7.0502 8.09648 7.16872 8.18083V17.7669L6.9706 18.5616H3.93901C1.76701 18.5616 0 20.3286 0 22.5006C0 24.6726 1.76701 26.4396 3.93901 26.4396H9.49963C9.29483 26.9015 9.18018 27.4118 9.18018 27.9486C9.18018 28.9698 9.5923 29.8964 10.2585 30.5715C9.5923 31.2467 9.18018 32.1732 9.18018 33.1944C9.18018 34.2156 9.5923 35.1422 10.2585 35.8173C9.5923 36.4925 9.18018 37.419 9.18018 38.4402C9.18018 39.7378 9.84537 40.8825 10.8521 41.5527L10.1088 42.2959C8.69008 43.7148 7.74495 45.589 7.44748 47.5733C7.35629 48.1818 7.77554 48.7488 8.38385 48.84C8.43999 48.8484 8.49553 48.8524 8.55048 48.8524C9.09256 48.8524 9.5678 48.4559 9.65052 47.9036C9.87774 46.3871 10.6001 44.955 11.684 43.8712L13.3783 42.1769H16.9921C19.0526 42.1769 20.7288 40.5007 20.7288 38.4402C20.7288 37.419 20.3167 36.4925 19.6505 35.8173C20.3167 35.1422 20.7288 34.2156 20.7288 33.1944C20.7288 32.1732 20.3167 31.2467 19.6505 30.5715C19.8097 30.4101 19.9546 30.2346 20.0827 30.0465H27.0876C28.0011 32.3237 29.7439 34.182 31.9429 35.2414C31.9431 35.2417 31.9432 35.242 31.9435 35.2423L33.3011 37.0425C34.4387 38.551 35.0652 40.4224 35.0652 42.3116V64.5819C35.0652 65.1972 35.5638 65.6957 36.1791 65.6957C36.7944 65.6957 37.2929 65.1972 37.2929 64.5819V45.8722H41.8569C43.1675 45.8722 44.3996 45.3618 45.3258 44.4352L47.3741 42.3871H53.1298C53.745 42.3871 54.2436 41.8885 54.2436 41.2732C54.2436 40.6579 53.745 40.1595 53.1298 40.1595ZM17.5805 14.9753L14.6841 17.7445C14.4243 17.9928 14.2053 18.2683 14.0236 18.5616H12.8073C13.4334 17.495 13.768 16.277 13.768 15.0099V8.63291H14.2786L17.5805 14.9753ZM9.36344 18.1731C9.38527 18.0849 9.39656 17.9944 9.39656 17.9037V8.63291H11.5405V15.0098C11.5405 16.2769 11.0514 17.4725 10.1635 18.3764L9.0235 19.5367L9.36344 18.1731ZM3.44713 5.00429V3.64852C3.44713 3.2808 3.74639 2.98169 4.1141 2.98169H6.1367V5.67126H4.1141C3.74639 5.67141 3.44713 5.37216 3.44713 5.00429ZM2.22755 22.5006C2.22755 21.5569 2.99521 20.7893 3.93886 20.7893H6.42645C6.32398 21.5133 6.666 22.2168 7.31812 22.5818C7.5954 22.737 7.89554 22.8128 8.19242 22.8128C8.65414 22.8128 9.10815 22.6294 9.45478 22.2766L10.9158 20.7893H13.4089C13.4201 21.5678 13.648 22.3491 14.1107 23.037C14.431 23.5135 14.8428 23.9104 15.3149 24.2121H3.93901C2.99521 24.2119 2.22755 23.4443 2.22755 22.5006ZM16.9921 26.4396C17.8242 26.4396 18.5011 27.1167 18.5011 27.9486C18.5011 28.7806 17.8241 29.4577 16.9921 29.4577H12.9169C12.0848 29.4577 11.4079 28.7806 11.4079 27.9486C11.4079 27.1167 12.0849 26.4396 12.9169 26.4396H16.9921ZM18.5011 33.1946C18.5011 34.0267 17.8241 34.7036 16.9921 34.7036H12.9169C12.0848 34.7036 11.4079 34.0265 11.4079 33.1946C11.4079 32.3626 12.0849 31.6855 12.9169 31.6855H16.9921C17.8242 31.6855 18.5011 32.3625 18.5011 33.1946ZM16.9921 39.9494H12.9169C12.0848 39.9494 11.4079 39.2723 11.4079 38.4403C11.4079 37.6084 12.0849 36.9313 12.9169 36.9313H16.9921C17.8242 36.9313 18.5011 37.6084 18.5011 38.4403C18.5011 39.2723 17.8242 39.9494 16.9921 39.9494ZM20.7256 27.8188C20.6789 26.462 19.9064 25.2866 18.7841 24.6707C19.3517 24.4914 19.8807 24.1899 20.3305 23.7778L22.1555 22.106L26.3854 24.2627V26.4126C26.3854 26.8902 26.4215 27.3593 26.4879 27.8188H20.7256Z" fill="black"/>
</svg>
