<svg width="40" height="40" viewBox="0 0 40 40" fill="none" xmlns="http://www.w3.org/2000/svg">
<path d="M33.9525 0H5.82709C2.614 0 0 2.614 0 5.82709V33.9525C0 37.1656 2.614 39.7796 5.82709 39.7796H18.7244V25.6392H14.4512V17.4813H18.7244V12.8196C18.7244 8.964 21.8613 5.82709 25.7169 5.82709H32.3209V13.985H26.8823V17.4813H32.5771L30.9455 25.6392H26.8823V39.7796H33.9525C37.1656 39.7796 39.7796 37.1656 39.7796 33.9525V5.82709C39.7796 2.614 37.1656 0 33.9525 0Z" fill="white" fill-opacity="0.8"/>
<path d="M29.7371 19.8119H24.5546V11.654H29.9932V8.15771H25.72C23.1494 8.15771 21.0584 10.2488 21.0584 12.8194V19.8119H16.7852V23.3081H21.0584V39.7794H24.5546V23.3081H29.0378L29.7371 19.8119Z" fill="white" fill-opacity="0.8"/>
</svg>
