<svg width="40" height="40" viewBox="0 0 40 40" fill="none" xmlns="http://www.w3.org/2000/svg">
<path d="M23.6058 19.8898C23.6058 21.8206 22.0404 23.3861 20.1095 23.3861C18.1787 23.3861 16.6133 21.8206 16.6133 19.8898C16.6133 17.959 18.1787 16.3936 20.1095 16.3936C22.0404 16.3936 23.6058 17.959 23.6058 19.8898Z" fill="white" fill-opacity="0.8"/>
<path d="M26.0142 9.32324H14.2046C11.634 9.32324 9.54297 11.4143 9.54297 13.9849V25.7945C9.54297 28.3651 11.634 30.4562 14.2046 30.4562H26.0142C28.5848 30.4562 30.6759 28.3651 30.6759 25.7945V13.9849C30.6759 11.4143 28.5848 9.32324 26.0142 9.32324ZM20.1094 25.7168C16.8963 25.7168 14.2823 23.1028 14.2823 19.8897C14.2823 16.6766 16.8963 14.0626 20.1094 14.0626C23.3225 14.0626 25.9365 16.6766 25.9365 19.8897C25.9365 23.1028 23.3225 25.7168 20.1094 25.7168ZM26.7912 14.3734C26.1474 14.3734 25.6257 13.8517 25.6257 13.208C25.6257 12.5643 26.1474 12.0426 26.7912 12.0426C27.4349 12.0426 27.9566 12.5643 27.9566 13.208C27.9566 13.8517 27.4349 14.3734 26.7912 14.3734Z" fill="white" fill-opacity="0.8"/>
<path d="M29.5096 0H10.7075C4.92412 0 0.21875 4.70537 0.21875 10.4888V29.2908C0.21875 35.0742 4.92412 39.7796 10.7075 39.7796H29.5096C35.293 39.7796 39.9983 35.0742 39.9983 29.2908V10.4888C39.9983 4.70537 35.293 0 29.5096 0ZM33.0058 25.7946C33.0058 29.6502 29.8689 32.7871 26.0133 32.7871H14.2038C10.3482 32.7871 7.21126 29.6502 7.21126 25.7946V13.985C7.21126 10.1294 10.3482 6.99251 14.2038 6.99251H26.0133C29.8689 6.99251 33.0058 10.1294 33.0058 13.985V25.7946Z" fill="white" fill-opacity="0.8"/>
</svg>
